<svg xmlns="http://www.w3.org/2000/svg" width="1919.993" height="75.707" viewBox="0 0 1919.993 75.707">
  <defs>
    <style>
      .cls-1 {
        fill: none;
        stroke: #f2d888;
        stroke-width: 2px;
      }
    </style>
  </defs>
  <path id="Melt_All" data-name="Melt All" class="cls-1" d="M1920,337H1556.6c-22.62-.724,7.74-.588-24.224,0H1488.6c-36.7,1.391,2.656,0-21.629,0s11.723-.332-20.541,0h-46.907c-19.09,0,8.543-.877-18.549,0h-64.121c-10.641,0-3.534-.371-14.946,0h-62.188c-12.546,0,2.4-.226-22.086,0h-42.5c-27.207,0-1.835-.108-19.559,0s8.767.206-22.406,0c-10.943-.072-9.407,0-17.885,0h-17.549c-16.755,0-11.479-.145-19.953,0s-8.734,0-20.413,0-5.55-2.247-13.276,0,9.21,0-5.6,0,2.135.136-6.074,0H935c-9.7.2-.994,0-5.309,0H906.429c-13.158,0,20.7-.172-4.858,0-23.951.194,5.407-.145-13.142,0H876.5c-5.861,0-5.155.034-13.1,0H848.83c-18.024,0,4.193-.169-7.807,0-3.7.02-11.766,0-17.412,0H799.863c-12.76.576-5.322,0-19.847,0h-31.01c-15.9,0-12.041.207-24.808,0H712.245c-12.11,0-4.577.337-15.459,0s-14.06.268-28.068,0-9.034,0-27.966,0c-12.3,0-3.63-.432-20.888,0-18.823.471,4.164,0-11.481,0s.806.465-12.981,0-10.312,18.635-19.864,18.635c-30.828-.663,5.6,41.867-22.859,42-19.011.087,9.192-40.087-22.311-40.087-11.421,0-6.321,18.051-22.53,18.281s6.032,34-12.986,34S507.688,336.461,470.125,337H389.188c-11.515,0-7.182.413-14.375,0s-6.027,0-14.4,0H315.931c-30.406.112-315.924,0-315.924,0" transform="translate(-0.007 -335.12)"/>
</svg>
